<svg width="169" height="26" viewBox="0 0 169 26" fill="none" xmlns="http://www.w3.org/2000/svg">
<path d="M19.4062 15.8438H6.57812V11.75H19.4062V15.8438ZM21.2344 25H6.57812C6.01562 25 5.40104 24.901 4.73438 24.7031C4.06771 24.5052 3.44792 24.1823 2.875 23.7344C2.3125 23.276 1.83854 22.6875 1.45312 21.9688C1.07812 21.2396 0.890625 20.349 0.890625 19.2969V4.64062C0.890625 4.35938 0.942708 4.09375 1.04688 3.84375C1.15104 3.59375 1.29167 3.375 1.46875 3.1875C1.65625 3 1.875 2.85417 2.125 2.75C2.375 2.64583 2.64583 2.59375 2.9375 2.59375H21.2344V6.65625H4.95312V19.2969C4.95312 19.8281 5.09375 20.2344 5.375 20.5156C5.65625 20.7969 6.06771 20.9375 6.60938 20.9375H21.2344V25ZM43.0625 19.2969C43.0625 19.9948 42.974 20.625 42.7969 21.1875C42.6198 21.7396 42.3854 22.2292 42.0938 22.6562C41.8021 23.0729 41.4635 23.4323 41.0781 23.7344C40.6927 24.026 40.2865 24.2656 39.8594 24.4531C39.4427 24.6406 39.0156 24.7812 38.5781 24.875C38.151 24.9583 37.7448 25 37.3594 25H30.0312C29.3333 25 28.7083 24.9115 28.1562 24.7344C27.6042 24.5573 27.1146 24.3229 26.6875 24.0312C26.2708 23.7292 25.9115 23.3854 25.6094 23C25.3177 22.6146 25.0781 22.2135 24.8906 21.7969C24.7031 21.3698 24.5625 20.9427 24.4688 20.5156C24.3854 20.0781 24.3438 19.6719 24.3438 19.2969V13.7969C24.3438 12.7552 24.5312 11.875 24.9062 11.1562C25.2917 10.4271 25.7656 9.83854 26.3281 9.39062C26.901 8.93229 27.5208 8.60417 28.1875 8.40625C28.8542 8.20833 29.4688 8.10938 30.0312 8.10938H37.3594V12.1719H30.0625C29.5208 12.1719 29.1094 12.3125 28.8281 12.5938C28.5469 12.8646 28.4062 13.2656 28.4062 13.7969V19.2656C28.4062 19.8177 28.5417 20.2344 28.8125 20.5156C29.0938 20.7969 29.5 20.9375 30.0312 20.9375H37.3594C37.9115 20.9375 38.3229 20.7969 38.5938 20.5156C38.8646 20.2344 39 19.8281 39 19.2969V0.96875H43.0625V19.2969ZM65.4062 22.9531C65.4062 23.2448 65.3542 23.5156 65.25 23.7656C65.1458 24.0156 65 24.2344 64.8125 24.4219C64.6354 24.599 64.4219 24.7396 64.1719 24.8438C63.9323 24.9479 63.6719 25 63.3906 25H54.2031C53.7031 25 53.1667 24.9427 52.5938 24.8281C52.0312 24.7135 51.474 24.5312 50.9219 24.2812C50.3698 24.0208 49.8333 23.6979 49.3125 23.3125C48.8021 22.9167 48.3542 22.4427 47.9688 21.8906C47.5833 21.3281 47.2708 20.6823 47.0312 19.9531C46.8021 19.224 46.6875 18.401 46.6875 17.4844V8.10938H50.75V17.4844C50.75 18.0156 50.8385 18.4948 51.0156 18.9219C51.2031 19.3385 51.4531 19.6979 51.7656 20C52.0781 20.3021 52.4427 20.5365 52.8594 20.7031C53.2865 20.8594 53.7448 20.9375 54.2344 20.9375H61.3438V8.10938H65.4062V22.9531Z" fill="#E9EFF6"/>
<path d="M92.0938 2.59375L81.4844 24.2031C81.3177 24.5365 81.0677 24.8021 80.7344 25C80.4115 25.2083 80.0521 25.3125 79.6562 25.3125C79.2708 25.3125 78.9115 25.2083 78.5781 25C78.2552 24.8021 78.0052 24.5365 77.8281 24.2031L67.2344 2.59375H71.7812L79.6562 18.7344L87.5625 2.59375H92.0938ZM110.984 13.7031C110.984 14.2656 110.885 14.875 110.688 15.5312C110.49 16.1771 110.167 16.7812 109.719 17.3438C109.281 17.8958 108.703 18.3594 107.984 18.7344C107.276 19.1094 106.411 19.2969 105.391 19.2969H98.0625V15.4375H105.391C105.943 15.4375 106.37 15.2708 106.672 14.9375C106.974 14.5938 107.125 14.1719 107.125 13.6719C107.125 13.1406 106.953 12.724 106.609 12.4219C106.276 12.1198 105.87 11.9688 105.391 11.9688H98.0625C97.5104 11.9688 97.0833 12.1406 96.7812 12.4844C96.4792 12.8177 96.3281 13.2344 96.3281 13.7344V19.4062C96.3281 19.9479 96.4948 20.3698 96.8281 20.6719C97.1719 20.974 97.5938 21.125 98.0938 21.125H105.391V25H98.0625C97.5 25 96.8906 24.901 96.2344 24.7031C95.5885 24.5052 94.9844 24.1875 94.4219 23.75C93.8698 23.3021 93.4062 22.724 93.0312 22.0156C92.6562 21.2969 92.4688 20.4271 92.4688 19.4062V13.7031C92.4688 13.1406 92.5677 12.5365 92.7656 11.8906C92.9635 11.2344 93.2812 10.6302 93.7188 10.0781C94.1667 9.51562 94.7448 9.04688 95.4531 8.67188C96.1719 8.29688 97.0417 8.10938 98.0625 8.10938H105.391C105.953 8.10938 106.557 8.20833 107.203 8.40625C107.859 8.60417 108.464 8.92708 109.016 9.375C109.578 9.8125 110.047 10.3906 110.422 11.1094C110.797 11.8177 110.984 12.6823 110.984 13.7031ZM128.5 12.1719H119.359C118.807 12.1719 118.391 12.3125 118.109 12.5938C117.828 12.8646 117.688 13.2656 117.688 13.7969V25H113.625V13.7969C113.625 13.099 113.714 12.474 113.891 11.9219C114.068 11.3698 114.302 10.8854 114.594 10.4688C114.896 10.0417 115.24 9.68229 115.625 9.39062C116.01 9.08854 116.411 8.84375 116.828 8.65625C117.255 8.46875 117.682 8.33333 118.109 8.25C118.547 8.15625 118.953 8.10938 119.328 8.10938H128.5V12.1719ZM147.516 19.2969C147.516 19.9948 147.427 20.625 147.25 21.1875C147.073 21.7396 146.839 22.2292 146.547 22.6562C146.255 23.0729 145.917 23.4323 145.531 23.7344C145.146 24.026 144.74 24.2656 144.312 24.4531C143.896 24.6406 143.469 24.7812 143.031 24.875C142.604 24.9583 142.198 25 141.812 25H130.812V20.9375H141.781C142.333 20.9375 142.75 20.7969 143.031 20.5156C143.312 20.2344 143.453 19.8281 143.453 19.2969C143.401 18.2135 142.854 17.6719 141.812 17.6719H135.516C134.62 17.6719 133.859 17.5156 133.234 17.2031C132.609 16.8906 132.099 16.5 131.703 16.0312C131.318 15.5625 131.036 15.0573 130.859 14.5156C130.693 13.974 130.609 13.4688 130.609 13C130.609 12.0938 130.771 11.3333 131.094 10.7188C131.417 10.0938 131.823 9.58854 132.312 9.20312C132.802 8.81771 133.333 8.54167 133.906 8.375C134.479 8.19792 135.016 8.10938 135.516 8.10938H145.5V12.1719H135.547C135.339 12.1719 135.172 12.1979 135.047 12.25C134.932 12.2917 134.844 12.3542 134.781 12.4375C134.729 12.5104 134.698 12.5938 134.688 12.6875C134.677 12.7708 134.672 12.8542 134.672 12.9375C134.682 13.1042 134.714 13.2344 134.766 13.3281C134.818 13.4219 134.88 13.4896 134.953 13.5312C135.036 13.5729 135.125 13.599 135.219 13.6094C135.323 13.6094 135.422 13.6094 135.516 13.6094H141.812C142.854 13.6094 143.74 13.7969 144.469 14.1719C145.198 14.5469 145.786 15.0208 146.234 15.5938C146.682 16.1562 147.005 16.7708 147.203 17.4375C147.411 18.1042 147.516 18.724 147.516 19.2969ZM168.547 13.7031C168.547 14.2656 168.448 14.875 168.25 15.5312C168.052 16.1771 167.729 16.7812 167.281 17.3438C166.844 17.8958 166.266 18.3594 165.547 18.7344C164.839 19.1094 163.974 19.2969 162.953 19.2969H155.625V15.4375H162.953C163.505 15.4375 163.932 15.2708 164.234 14.9375C164.536 14.5938 164.688 14.1719 164.688 13.6719C164.688 13.1406 164.516 12.724 164.172 12.4219C163.839 12.1198 163.432 11.9688 162.953 11.9688H155.625C155.073 11.9688 154.646 12.1406 154.344 12.4844C154.042 12.8177 153.891 13.2344 153.891 13.7344V19.4062C153.891 19.9479 154.057 20.3698 154.391 20.6719C154.734 20.974 155.156 21.125 155.656 21.125H162.953V25H155.625C155.062 25 154.453 24.901 153.797 24.7031C153.151 24.5052 152.547 24.1875 151.984 23.75C151.432 23.3021 150.969 22.724 150.594 22.0156C150.219 21.2969 150.031 20.4271 150.031 19.4062V13.7031C150.031 13.1406 150.13 12.5365 150.328 11.8906C150.526 11.2344 150.844 10.6302 151.281 10.0781C151.729 9.51562 152.307 9.04688 153.016 8.67188C153.734 8.29688 154.604 8.10938 155.625 8.10938H162.953C163.516 8.10938 164.12 8.20833 164.766 8.40625C165.422 8.60417 166.026 8.92708 166.578 9.375C167.141 9.8125 167.609 10.3906 167.984 11.1094C168.359 11.8177 168.547 12.6823 168.547 13.7031Z" fill="#1DB19F"/>
</svg>
