<svg width="513" height="371" viewBox="0 0 513 371" fill="none" xmlns="http://www.w3.org/2000/svg">
<g clip-path="url(#clip0_1_103)">
<path d="M512.259 368.155H0.741329C0.544717 368.155 0.356156 368.077 0.21713 367.937C0.0781036 367.798 0 367.609 0 367.413C0 367.216 0.0781036 367.027 0.21713 366.888C0.356156 366.749 0.544717 366.67 0.741329 366.67H512.259C512.455 366.67 512.644 366.749 512.783 366.888C512.922 367.027 513 367.216 513 367.413C513 367.609 512.922 367.798 512.783 367.937C512.644 368.077 512.455 368.155 512.259 368.155Z" fill="#CCCCCC"/>
<path d="M461.629 238.717H160.649C159.371 238.717 158.146 239.225 157.242 240.13C156.338 241.034 155.831 242.261 155.831 243.541C155.831 244.82 156.338 246.047 157.242 246.952C158.146 247.857 159.371 248.365 160.649 248.365H169.175V363.775C169.175 365.054 169.682 366.281 170.586 367.186C171.49 368.09 172.715 368.599 173.993 368.599C175.271 368.599 176.497 368.09 177.401 367.186C178.304 366.281 178.812 365.054 178.812 363.775L178.885 248.365H442.725V363.775C442.725 365.054 443.233 366.281 444.137 367.186C445.04 368.09 446.266 368.599 447.544 368.599C448.822 368.599 450.048 368.09 450.951 367.186C451.855 366.281 452.363 365.054 452.363 363.775V250.909L453.765 248.365H461.629C462.907 248.365 464.133 247.857 465.036 246.952C465.94 246.047 466.448 244.82 466.448 243.541C466.448 242.261 465.94 241.034 465.036 240.13C464.133 239.225 462.907 238.717 461.629 238.717Z" fill="#CCCCCC"/>
<path d="M327.515 241.241H236.345C234.58 241.239 232.887 240.537 231.639 239.287C230.391 238.037 229.689 236.343 229.687 234.575V184.323C229.689 182.555 230.391 180.861 231.639 179.611C232.887 178.362 234.58 177.659 236.345 177.657H327.515C329.28 177.659 330.973 178.362 332.221 179.611C333.469 180.861 334.172 182.555 334.174 184.323V234.575C334.172 236.343 333.469 238.037 332.221 239.287C330.973 240.537 329.28 241.239 327.515 241.241Z" fill="#3F3D56"/>
<path d="M327.515 182.787H236.345C235.939 182.788 235.549 182.95 235.261 183.238C234.974 183.526 234.812 183.916 234.811 184.323V234.577C234.812 234.984 234.974 235.374 235.261 235.662C235.549 235.95 235.939 236.112 236.345 236.113H327.515C327.921 236.112 328.311 235.95 328.599 235.662C328.886 235.374 329.048 234.984 329.049 234.577V184.323C329.048 183.916 328.886 183.526 328.599 183.238C328.311 182.95 327.921 182.788 327.515 182.787Z" fill="white"/>
<path d="M289.706 218.366C289.706 218.366 278.792 215.848 272.789 220.464C266.786 225.08 280.429 235.571 280.429 235.571L289.706 218.366Z" fill="#080808"/>
<path d="M282.464 213.609C288.15 213.609 292.759 208.994 292.759 203.302C292.759 197.61 288.15 192.995 282.464 192.995C276.779 192.995 272.169 197.61 272.169 203.302C272.169 208.994 276.779 213.609 282.464 213.609Z" fill="#A0616A"/>
<path d="M274.504 188.834C275.19 187.667 276.185 186.713 277.379 186.077C278.573 185.441 279.919 185.148 281.269 185.23C282.681 185.407 284.059 185.793 285.358 186.376L292.088 189.004C293.83 189.684 295.737 190.517 296.493 192.229C297.194 193.818 296.671 195.652 296.141 197.306L293.623 205.168C293.344 203.389 292.865 201.647 292.196 199.975C291.516 198.292 290.287 196.889 288.709 195.994C286.96 195.096 284.9 195.115 282.938 195.209C280.158 195.343 277.136 195.697 275.162 197.66C274.113 198.774 273.403 200.164 273.112 201.667C272.826 203.162 272.682 204.681 272.682 206.203C271.543 204.242 270.583 202.181 269.814 200.046C269.182 198.457 268.821 196.772 268.748 195.063C268.682 193.339 269.253 191.651 270.353 190.322C270.911 189.673 271.639 189.193 272.455 188.936C273.271 188.679 274.143 188.655 274.972 188.867L274.504 188.834Z" fill="#080808"/>
<path d="M307.046 227.303C306.949 226.955 306.752 226.643 306.479 226.407C306.206 226.171 305.87 226.02 305.512 225.975C305.488 225.958 305.463 225.943 305.437 225.93L290.069 217.307C289.63 217.061 289.113 216.994 288.626 217.119C288.139 217.245 287.718 217.554 287.453 217.981L283.25 224.795L276.919 218.456L276.818 218.356C276.493 218.03 276.064 217.83 275.606 217.79C275.149 217.75 274.691 217.873 274.315 218.137L261.684 226.992C261.662 226.992 261.64 226.999 261.618 226.999C261.013 227.1 260.461 227.404 260.052 227.862C259.644 228.319 259.404 228.902 259.371 229.515L259.045 236.113H309.485L307.046 227.303Z" fill="#1DB19F"/>
<path d="M335.198 235.088H325.466C325.466 234.816 325.358 234.555 325.166 234.363C324.974 234.171 324.714 234.063 324.442 234.062H321.369C321.097 234.063 320.837 234.171 320.644 234.363C320.452 234.555 320.344 234.816 320.344 235.088H317.271C317.271 234.816 317.163 234.555 316.971 234.363C316.779 234.171 316.519 234.063 316.247 234.062H313.174C312.902 234.063 312.641 234.171 312.449 234.363C312.257 234.555 312.149 234.816 312.149 235.088H309.076C309.076 234.816 308.968 234.555 308.776 234.363C308.584 234.171 308.323 234.063 308.052 234.062H304.979C304.707 234.063 304.446 234.171 304.254 234.363C304.062 234.555 303.954 234.816 303.954 235.088H300.881C300.881 234.816 300.773 234.555 300.581 234.363C300.389 234.171 300.128 234.063 299.857 234.062H296.784C296.512 234.063 296.251 234.171 296.059 234.363C295.867 234.555 295.759 234.816 295.759 235.088H292.686C292.686 234.816 292.578 234.555 292.386 234.363C292.194 234.171 291.933 234.063 291.662 234.062H288.589C288.317 234.063 288.056 234.171 287.864 234.363C287.672 234.555 287.564 234.816 287.564 235.088H284.491C284.491 234.816 284.383 234.555 284.191 234.363C283.999 234.171 283.738 234.063 283.467 234.062H280.393C280.122 234.063 279.861 234.171 279.669 234.363C279.477 234.555 279.369 234.816 279.369 235.088H276.296C276.296 234.816 276.188 234.555 275.996 234.363C275.804 234.171 275.543 234.063 275.272 234.062H272.198C271.927 234.063 271.666 234.171 271.474 234.363C271.282 234.555 271.174 234.816 271.174 235.088H268.101C268.101 234.816 267.993 234.555 267.801 234.363C267.609 234.171 267.348 234.063 267.076 234.062H264.003C263.732 234.063 263.471 234.171 263.279 234.363C263.087 234.555 262.979 234.816 262.979 235.088H259.906C259.906 234.816 259.798 234.555 259.606 234.363C259.414 234.171 259.153 234.063 258.881 234.062H255.808C255.537 234.063 255.276 234.171 255.084 234.363C254.892 234.555 254.784 234.816 254.784 235.088H251.711C251.711 234.816 251.603 234.555 251.411 234.363C251.219 234.171 250.958 234.063 250.686 234.062H247.613C247.342 234.063 247.081 234.171 246.889 234.363C246.697 234.555 246.589 234.816 246.589 235.088H243.516C243.516 234.816 243.408 234.555 243.216 234.363C243.024 234.171 242.763 234.063 242.491 234.062H239.418C239.146 234.063 238.886 234.171 238.694 234.363C238.502 234.555 238.394 234.816 238.394 235.088H228.662C227.848 235.089 227.067 235.414 226.492 235.991C225.917 236.568 225.594 237.35 225.594 238.165C225.594 238.98 225.917 239.762 226.492 240.339C227.067 240.915 227.848 241.24 228.662 241.241H335.198C336.013 241.241 336.795 240.917 337.371 240.34C337.947 239.763 338.271 238.981 338.271 238.165C338.271 237.349 337.947 236.566 337.371 235.989C336.795 235.412 336.013 235.088 335.198 235.088Z" fill="#3F3D56"/>
<path d="M212.82 217.221V237.65H161.696C160.327 237.698 158.961 237.469 157.682 236.977C156.402 236.485 155.235 235.74 154.249 234.787C153.263 233.834 152.479 232.692 151.944 231.429C151.408 230.166 151.132 228.808 151.132 227.435C151.132 226.063 151.408 224.705 151.944 223.442C152.479 222.179 153.263 221.037 154.249 220.084C155.235 219.13 156.402 218.386 157.682 217.894C158.961 217.402 160.327 217.173 161.696 217.221H212.82Z" fill="#F2F2F2"/>
<path d="M214.076 237.493C214.076 237.701 213.993 237.901 213.846 238.048C213.699 238.196 213.499 238.278 213.291 238.279H160.786C157.934 238.279 155.199 237.144 153.183 235.126C151.167 233.107 150.034 230.369 150.034 227.514C150.034 224.659 151.167 221.921 153.183 219.902C155.199 217.884 157.934 216.749 160.786 216.749H213.291C213.499 216.749 213.699 216.832 213.846 216.98C213.993 217.127 214.076 217.327 214.076 217.535C214.076 217.744 213.993 217.943 213.846 218.091C213.699 218.238 213.499 218.321 213.291 218.321H160.786C158.352 218.323 156.018 219.293 154.298 221.016C152.578 222.74 151.612 225.077 151.612 227.514C151.612 229.951 152.578 232.288 154.298 234.012C156.018 235.735 158.352 236.705 160.786 236.707H213.291C213.499 236.707 213.699 236.79 213.846 236.937C213.993 237.085 214.076 237.284 214.076 237.493Z" fill="#1DB19F"/>
<path d="M212.82 221.935H157.882C157.861 221.935 157.841 221.931 157.822 221.924C157.802 221.916 157.785 221.904 157.77 221.89C157.756 221.875 157.744 221.858 157.736 221.839C157.728 221.819 157.724 221.799 157.724 221.778C157.724 221.757 157.728 221.737 157.736 221.718C157.744 221.699 157.756 221.681 157.77 221.667C157.785 221.652 157.802 221.64 157.822 221.633C157.841 221.625 157.861 221.621 157.882 221.621H212.82C212.862 221.621 212.901 221.638 212.93 221.667C212.96 221.697 212.976 221.737 212.976 221.778C212.976 221.82 212.96 221.859 212.93 221.889C212.901 221.918 212.862 221.935 212.82 221.935Z" fill="#CCCCCC"/>
<path d="M212.82 225.707H157.882C157.861 225.707 157.841 225.703 157.822 225.695C157.802 225.687 157.785 225.676 157.77 225.661C157.756 225.647 157.744 225.629 157.736 225.61C157.728 225.591 157.724 225.57 157.724 225.55C157.724 225.529 157.728 225.508 157.736 225.489C157.744 225.47 157.756 225.453 157.77 225.438C157.785 225.424 157.802 225.412 157.822 225.404C157.841 225.396 157.861 225.392 157.882 225.393H212.82C212.862 225.393 212.901 225.409 212.93 225.439C212.96 225.468 212.976 225.508 212.976 225.55C212.976 225.591 212.96 225.631 212.93 225.66C212.901 225.69 212.862 225.707 212.82 225.707Z" fill="#CCCCCC"/>
<path d="M212.82 229.478H157.882C157.861 229.478 157.841 229.475 157.822 229.467C157.802 229.459 157.785 229.447 157.77 229.433C157.756 229.418 157.744 229.401 157.736 229.382C157.728 229.362 157.724 229.342 157.724 229.321C157.724 229.3 157.728 229.28 157.736 229.261C157.744 229.242 157.756 229.224 157.77 229.21C157.785 229.195 157.802 229.184 157.822 229.176C157.841 229.168 157.861 229.164 157.882 229.164H212.82C212.862 229.164 212.901 229.181 212.93 229.21C212.96 229.24 212.976 229.28 212.976 229.321C212.976 229.363 212.96 229.403 212.93 229.432C212.901 229.461 212.862 229.478 212.82 229.478Z" fill="#CCCCCC"/>
<path d="M212.82 233.25H157.882C157.861 233.25 157.841 233.246 157.822 233.238C157.802 233.23 157.785 233.219 157.77 233.204C157.756 233.19 157.744 233.172 157.736 233.153C157.728 233.134 157.724 233.113 157.724 233.093C157.724 233.072 157.728 233.051 157.736 233.032C157.744 233.013 157.756 232.996 157.77 232.981C157.785 232.967 157.802 232.955 157.822 232.947C157.841 232.939 157.861 232.935 157.882 232.936H212.82C212.862 232.936 212.901 232.953 212.93 232.982C212.96 233.011 212.976 233.051 212.976 233.093C212.976 233.134 212.96 233.174 212.93 233.203C212.901 233.233 212.862 233.25 212.82 233.25Z" fill="#CCCCCC"/>
<path d="M203.183 195.698V216.127H152.059C150.689 216.174 149.324 215.945 148.045 215.454C146.765 214.962 145.598 214.217 144.612 213.264C143.626 212.311 142.842 211.168 142.307 209.905C141.771 208.642 141.495 207.284 141.495 205.912C141.495 204.54 141.771 203.182 142.307 201.919C142.842 200.656 143.626 199.514 144.612 198.56C145.598 197.607 146.765 196.862 148.045 196.371C149.324 195.879 150.689 195.65 152.059 195.698H203.183Z" fill="#F2F2F2"/>
<path d="M204.439 215.97C204.439 216.178 204.356 216.378 204.209 216.525C204.062 216.672 203.862 216.755 203.654 216.755H151.149C149.737 216.755 148.339 216.477 147.034 215.936C145.729 215.395 144.544 214.602 143.546 213.602C142.547 212.603 141.755 211.416 141.215 210.11C140.675 208.804 140.396 207.404 140.396 205.991C140.396 204.577 140.675 203.177 141.215 201.871C141.755 200.565 142.547 199.379 143.546 198.379C144.544 197.379 145.729 196.587 147.034 196.046C148.339 195.505 149.737 195.226 151.149 195.226H203.654C203.862 195.226 204.062 195.309 204.209 195.456C204.356 195.604 204.439 195.803 204.439 196.012C204.439 196.22 204.356 196.42 204.209 196.567C204.062 196.715 203.862 196.798 203.654 196.798H151.149C148.715 196.8 146.381 197.769 144.661 199.493C142.941 201.217 141.974 203.554 141.974 205.991C141.974 208.427 142.941 210.764 144.661 212.488C146.381 214.212 148.715 215.182 151.149 215.184H203.654C203.862 215.184 204.062 215.267 204.209 215.414C204.356 215.561 204.439 215.761 204.439 215.97Z" fill="#3F3D56"/>
<path d="M203.183 200.412H148.245C148.224 200.412 148.203 200.408 148.184 200.4C148.165 200.392 148.148 200.381 148.133 200.366C148.118 200.352 148.107 200.334 148.099 200.315C148.091 200.296 148.087 200.276 148.087 200.255C148.087 200.234 148.091 200.214 148.099 200.194C148.107 200.175 148.118 200.158 148.133 200.143C148.148 200.129 148.165 200.117 148.184 200.109C148.203 200.101 148.224 200.098 148.245 200.098H203.183C203.224 200.098 203.264 200.115 203.293 200.144C203.322 200.174 203.339 200.213 203.339 200.255C203.339 200.296 203.322 200.336 203.293 200.366C203.264 200.395 203.224 200.412 203.183 200.412Z" fill="#CCCCCC"/>
<path d="M203.183 204.183H148.245C148.224 204.184 148.203 204.18 148.184 204.172C148.165 204.164 148.148 204.152 148.133 204.138C148.118 204.123 148.107 204.106 148.099 204.087C148.091 204.068 148.087 204.047 148.087 204.026C148.087 204.006 148.091 203.985 148.099 203.966C148.107 203.947 148.118 203.929 148.133 203.915C148.148 203.9 148.165 203.889 148.184 203.881C148.203 203.873 148.224 203.869 148.245 203.869H203.183C203.224 203.869 203.264 203.886 203.293 203.916C203.322 203.945 203.339 203.985 203.339 204.026C203.339 204.068 203.322 204.108 203.293 204.137C203.264 204.167 203.224 204.183 203.183 204.183Z" fill="#CCCCCC"/>
<path d="M203.183 207.955H148.245C148.224 207.955 148.203 207.951 148.184 207.943C148.165 207.936 148.148 207.924 148.133 207.909C148.118 207.895 148.107 207.877 148.099 207.858C148.091 207.839 148.087 207.819 148.087 207.798C148.087 207.777 148.091 207.757 148.099 207.738C148.107 207.718 148.118 207.701 148.133 207.686C148.148 207.672 148.165 207.66 148.184 207.652C148.203 207.645 148.224 207.641 148.245 207.641H203.183C203.224 207.641 203.264 207.658 203.293 207.687C203.322 207.717 203.339 207.756 203.339 207.798C203.339 207.839 203.322 207.879 203.293 207.909C203.264 207.938 203.224 207.955 203.183 207.955Z" fill="#CCCCCC"/>
<path d="M203.183 211.727H148.245C148.224 211.727 148.203 211.723 148.184 211.715C148.165 211.707 148.148 211.695 148.133 211.681C148.118 211.666 148.107 211.649 148.099 211.63C148.091 211.611 148.087 211.59 148.087 211.569C148.087 211.549 148.091 211.528 148.099 211.509C148.107 211.49 148.118 211.472 148.133 211.458C148.148 211.443 148.165 211.432 148.184 211.424C148.203 211.416 148.224 211.412 148.245 211.412H203.183C203.224 211.413 203.264 211.429 203.293 211.459C203.322 211.488 203.339 211.528 203.339 211.569C203.339 211.611 203.322 211.651 203.293 211.68C203.264 211.71 203.224 211.726 203.183 211.727Z" fill="#CCCCCC"/>
<path d="M262.655 310.265V292.452C262.655 291.665 262.343 290.91 261.787 290.353C261.231 289.796 260.476 289.483 259.69 289.483H192.229C191.443 289.483 190.688 289.796 190.132 290.353C189.576 290.91 189.264 291.665 189.264 292.452V310.265H262.655Z" fill="#CCCCCC"/>
<path d="M262.655 316.944H189.264V339.952H262.655V316.944Z" fill="#CCCCCC"/>
<path d="M189.264 346.631V364.444C189.264 365.231 189.576 365.986 190.132 366.543C190.688 367.1 191.443 367.413 192.229 367.413H259.69C260.476 367.413 261.231 367.1 261.787 366.543C262.343 365.986 262.655 365.231 262.655 364.444V346.631H189.264Z" fill="#CCCCCC"/>
<path d="M225.589 302.843C226.817 302.843 227.813 301.846 227.813 300.616C227.813 299.386 226.817 298.39 225.589 298.39C224.361 298.39 223.365 299.386 223.365 300.616C223.365 301.846 224.361 302.843 225.589 302.843Z" fill="white"/>
<path d="M225.589 332.53C226.817 332.53 227.813 331.533 227.813 330.303C227.813 329.074 226.817 328.077 225.589 328.077C224.361 328.077 223.365 329.074 223.365 330.303C223.365 331.533 224.361 332.53 225.589 332.53Z" fill="white"/>
<path d="M225.708 361.589C226.936 361.589 227.932 360.592 227.932 359.362C227.932 358.132 226.936 357.136 225.708 357.136C224.48 357.136 223.484 358.132 223.484 359.362C223.484 360.592 224.48 361.589 225.708 361.589Z" fill="white"/>
<path d="M254.335 269.174V289.603H203.211C201.841 289.651 200.476 289.422 199.196 288.93C197.917 288.438 196.75 287.693 195.764 286.74C194.778 285.787 193.994 284.645 193.458 283.382C192.923 282.118 192.647 280.76 192.647 279.388C192.647 278.016 192.923 276.658 193.458 275.395C193.994 274.132 194.778 272.99 195.764 272.036C196.75 271.083 197.917 270.339 199.196 269.847C200.476 269.355 201.841 269.126 203.211 269.174H254.335Z" fill="#F2F2F2"/>
<path d="M255.591 289.446C255.59 289.654 255.508 289.854 255.361 290.001C255.213 290.149 255.014 290.231 254.806 290.231H202.3C200.888 290.233 199.489 289.955 198.183 289.415C196.877 288.874 195.691 288.081 194.692 287.082C193.692 286.082 192.9 284.895 192.359 283.588C191.818 282.282 191.539 280.881 191.539 279.467C191.539 278.052 191.818 276.652 192.359 275.345C192.9 274.039 193.692 272.852 194.692 271.852C195.691 270.852 196.877 270.06 198.183 269.519C199.489 268.979 200.888 268.701 202.3 268.702H254.806C255.014 268.702 255.213 268.785 255.361 268.932C255.508 269.08 255.591 269.28 255.591 269.488C255.591 269.696 255.508 269.896 255.361 270.044C255.213 270.191 255.014 270.274 254.806 270.274H202.3C199.867 270.276 197.533 271.245 195.813 272.969C194.092 274.693 193.126 277.03 193.126 279.467C193.126 281.904 194.092 284.241 195.813 285.964C197.533 287.688 199.867 288.658 202.3 288.66H254.806C255.014 288.66 255.213 288.743 255.361 288.89C255.508 289.037 255.59 289.237 255.591 289.446Z" fill="#3F3D56"/>
<path d="M254.335 273.888H199.396C199.376 273.888 199.355 273.884 199.336 273.876C199.317 273.869 199.299 273.857 199.285 273.842C199.27 273.828 199.258 273.81 199.25 273.791C199.242 273.772 199.238 273.752 199.238 273.731C199.238 273.71 199.242 273.69 199.25 273.67C199.258 273.651 199.27 273.634 199.285 273.619C199.299 273.605 199.317 273.593 199.336 273.585C199.355 273.578 199.376 273.574 199.396 273.574H254.335C254.376 273.574 254.416 273.591 254.445 273.62C254.474 273.65 254.49 273.689 254.49 273.731C254.49 273.772 254.474 273.812 254.445 273.842C254.416 273.871 254.376 273.888 254.335 273.888Z" fill="#CCCCCC"/>
<path d="M254.335 277.66H199.396C199.376 277.66 199.355 277.656 199.336 277.648C199.317 277.64 199.299 277.629 199.285 277.614C199.27 277.599 199.258 277.582 199.25 277.563C199.242 277.544 199.238 277.523 199.238 277.502C199.238 277.482 199.242 277.461 199.25 277.442C199.258 277.423 199.27 277.406 199.285 277.391C199.299 277.376 199.317 277.365 199.336 277.357C199.355 277.349 199.376 277.345 199.396 277.345H254.335C254.376 277.346 254.416 277.362 254.445 277.392C254.474 277.421 254.49 277.461 254.49 277.502C254.49 277.544 254.474 277.584 254.445 277.613C254.416 277.643 254.376 277.659 254.335 277.66Z" fill="#CCCCCC"/>
<path d="M254.335 281.431H199.396C199.376 281.431 199.355 281.427 199.336 281.419C199.317 281.412 199.299 281.4 199.285 281.385C199.27 281.371 199.258 281.353 199.25 281.334C199.242 281.315 199.238 281.295 199.238 281.274C199.238 281.253 199.242 281.233 199.25 281.214C199.258 281.194 199.27 281.177 199.285 281.162C199.299 281.148 199.317 281.136 199.336 281.128C199.355 281.121 199.376 281.117 199.396 281.117H254.335C254.376 281.117 254.416 281.134 254.445 281.163C254.474 281.193 254.49 281.232 254.49 281.274C254.49 281.315 254.474 281.355 254.445 281.385C254.416 281.414 254.376 281.431 254.335 281.431Z" fill="#CCCCCC"/>
<path d="M254.335 285.203H199.396C199.376 285.203 199.355 285.199 199.336 285.191C199.317 285.183 199.299 285.172 199.285 285.157C199.27 285.142 199.258 285.125 199.25 285.106C199.242 285.087 199.238 285.066 199.238 285.045C199.238 285.025 199.242 285.004 199.25 284.985C199.258 284.966 199.27 284.949 199.285 284.934C199.299 284.919 199.317 284.908 199.336 284.9C199.355 284.892 199.376 284.888 199.396 284.888H254.335C254.376 284.889 254.416 284.905 254.445 284.935C254.474 284.964 254.49 285.004 254.49 285.045C254.49 285.087 254.474 285.127 254.445 285.156C254.416 285.186 254.376 285.202 254.335 285.203Z" fill="#CCCCCC"/>
<path d="M185.414 135.835V5.58228C185.416 4.10229 186.004 2.68339 187.049 1.63688C188.094 0.590362 189.512 0.00168345 190.99 0H293.834C295.312 0.00169325 296.729 0.590375 297.774 1.63689C298.82 2.6834 299.408 4.10229 299.409 5.58228V135.835C299.408 137.315 298.82 138.734 297.774 139.781C296.729 140.827 295.312 141.416 293.834 141.418H190.99C189.512 141.416 188.094 140.827 187.049 139.781C186.004 138.734 185.416 137.315 185.414 135.835ZM190.99 1.24051C189.84 1.2418 188.738 1.69965 187.925 2.51361C187.112 3.32757 186.654 4.43117 186.653 5.58228V135.835C186.654 136.987 187.112 138.09 187.925 138.904C188.738 139.718 189.84 140.176 190.99 140.177H293.834C294.983 140.176 296.086 139.718 296.899 138.904C297.712 138.09 298.169 136.987 298.17 135.835V5.58228C298.169 4.43117 297.712 3.32757 296.899 2.51361C296.086 1.69965 294.983 1.2418 293.834 1.24051H190.99Z" fill="#E6E6E6"/>
<path d="M248.179 59.8183V33.0732C248.18 32.3332 248.474 31.6237 248.996 31.1005C249.519 30.5772 250.228 30.2829 250.967 30.282H273.605C274.344 30.2829 275.053 30.5772 275.575 31.1005C276.098 31.6237 276.392 32.3332 276.393 33.0732V59.8183C276.392 60.5583 276.098 61.2677 275.575 61.791C275.053 62.3142 274.344 62.6086 273.605 62.6094H250.967C250.228 62.6086 249.519 62.3142 248.996 61.791C248.474 61.2677 248.18 60.5583 248.179 59.8183Z" fill="#1DB19F"/>
<path d="M204.192 72.2233V45.4783C204.192 44.7383 204.486 44.0288 205.009 43.5055C205.532 42.9823 206.24 42.688 206.98 42.6871H229.618C230.357 42.688 231.065 42.9823 231.588 43.5055C232.111 44.0288 232.405 44.7383 232.406 45.4783V72.2233C232.405 72.9633 232.111 73.6728 231.588 74.1961C231.065 74.7193 230.357 75.0136 229.618 75.0145H206.98C206.24 75.0136 205.532 74.7193 205.009 74.1961C204.486 73.6728 204.192 72.9633 204.192 72.2233Z" fill="#CCCCCC"/>
<path d="M239.505 110.059V83.3137C239.506 82.5737 239.8 81.8642 240.323 81.3409C240.846 80.8177 241.554 80.5233 242.293 80.5225H264.931C265.67 80.5233 266.379 80.8177 266.902 81.3409C267.424 81.8642 267.718 82.5737 267.719 83.3137V110.059C267.718 110.799 267.424 111.508 266.902 112.031C266.379 112.555 265.67 112.849 264.931 112.85H242.293C241.554 112.849 240.846 112.555 240.323 112.031C239.8 111.508 239.506 110.799 239.505 110.059Z" fill="#AB0A00"/>
<path d="M374.789 232.335H351.496C351.275 232.335 351.057 232.386 350.859 232.484L344.98 235.43C344.786 235.513 344.621 235.65 344.505 235.826C344.389 236.001 344.328 236.207 344.328 236.417C344.328 236.628 344.389 236.834 344.505 237.009C344.621 237.185 344.786 237.322 344.98 237.404L350.859 240.351C351.057 240.449 351.275 240.499 351.496 240.499H374.789C375.11 240.518 375.425 240.409 375.667 240.197C375.908 239.984 376.056 239.685 376.079 239.364V233.471C376.056 233.15 375.908 232.851 375.667 232.638C375.425 232.425 375.11 232.317 374.789 232.335Z" fill="#3F3D56"/>
<path d="M376.079 233.471V239.364C376.056 239.685 375.908 239.984 375.667 240.197C375.425 240.409 375.11 240.518 374.789 240.499H370.148V232.335H374.789C375.11 232.317 375.425 232.425 375.667 232.638C375.908 232.851 376.056 233.15 376.079 233.471Z" fill="#1DB19F"/>
<path d="M374.613 188.249C375.668 187.794 376.808 187.566 377.957 187.582C379.106 187.598 380.239 187.856 381.281 188.341C382.323 188.825 383.251 189.525 384.004 190.393C384.758 191.262 385.319 192.28 385.652 193.381C385.756 193.73 385.835 194.086 385.89 194.446L418.462 210.617L426 205.616L435.379 216.426L423.87 225.785C422.485 226.902 420.778 227.542 419.002 227.61C417.226 227.679 415.475 227.172 414.009 226.166L380.961 203.285C380.715 203.39 380.464 203.482 380.209 203.56C379.109 203.893 377.951 203.99 376.811 203.844C375.671 203.697 374.575 203.312 373.594 202.712C372.614 202.112 371.771 201.311 371.121 200.363C370.471 199.414 370.028 198.338 369.822 197.206C369.761 196.878 369.721 196.546 369.702 196.212C369.61 194.542 370.032 192.883 370.91 191.459C371.788 190.036 373.08 188.916 374.613 188.249Z" fill="#FFB8B8"/>
<path d="M442.456 287.812H406.865C406.865 288.837 370.184 289.668 370.184 289.668C369.608 290.102 369.084 290.6 368.62 291.152C367.227 292.816 366.465 294.919 366.47 297.09V298.574C366.471 301.034 367.447 303.393 369.185 305.133C370.922 306.873 373.279 307.85 375.736 307.851H442.456C444.913 307.849 447.269 306.871 449.006 305.132C450.743 303.392 451.721 301.034 451.723 298.574V297.09C451.719 294.63 450.742 292.273 449.005 290.533C447.268 288.794 444.913 287.816 442.456 287.812Z" fill="#3F3D56"/>
<path d="M403.741 369.826H413.378V307.483H403.741V369.826Z" fill="#3F3D56"/>
<path d="M376.312 369.487C376.312 370.53 390.916 369.89 408.93 369.89C426.945 369.89 441.549 370.53 441.549 369.487C441.549 368.445 426.945 360.178 408.93 360.178C390.916 360.178 376.312 368.445 376.312 369.487Z" fill="#3F3D56"/>
<path d="M385.012 362.18L375.924 362.179L371.6 338.58L385.013 338.581L385.012 362.18Z" fill="#FFB8B8"/>
<path d="M387.33 371L358.024 370.999V370.628C358.024 369.128 358.319 367.643 358.893 366.258C359.466 364.872 360.306 363.613 361.365 362.553C362.424 361.493 363.682 360.651 365.066 360.078C366.45 359.504 367.933 359.208 369.431 359.208H369.432L387.33 359.209L387.33 371Z" fill="#080808"/>
<path d="M371.418 347.546L353.3 306.868C351.787 303.44 351.62 299.567 352.831 296.02C354.043 292.474 356.544 289.515 359.837 287.732L399.137 266.633L417.071 265.106L433.614 263.601L433.733 263.803C433.885 264.061 437.442 270.212 435.038 276.956C433.214 282.071 428.471 286.067 420.939 288.832C403.359 295.286 383.05 300.801 375.135 302.873C374.785 302.962 374.458 303.125 374.175 303.35C373.893 303.575 373.661 303.858 373.496 304.179C373.329 304.496 373.231 304.845 373.206 305.202C373.181 305.56 373.23 305.918 373.35 306.256L390.183 344.118C390.359 344.598 390.422 345.113 390.368 345.621C390.314 346.13 390.144 346.619 389.871 347.051C389.598 347.484 389.23 347.848 388.794 348.115C388.359 348.382 387.868 348.546 387.359 348.593L374.781 349.51C374.674 349.52 374.568 349.525 374.462 349.525C373.818 349.525 373.188 349.338 372.648 348.987C372.107 348.635 371.68 348.135 371.418 347.546Z" fill="#080808"/>
<path d="M389.46 362.18L380.372 362.179L376.048 338.58L389.461 338.581L389.46 362.18Z" fill="#FFB8B8"/>
<path d="M391.778 371L362.472 370.999V370.628C362.472 369.128 362.767 367.643 363.341 366.258C363.914 364.872 364.754 363.613 365.813 362.553C366.872 361.493 368.13 360.651 369.514 360.078C370.898 359.504 372.381 359.208 373.879 359.208H373.88L391.778 359.209L391.778 371Z" fill="#080808"/>
<path d="M376.608 349.772L358.489 309.095C356.976 305.666 356.809 301.793 358.02 298.247C359.232 294.701 361.733 291.741 365.026 289.958L404.327 268.86L422.261 267.333L438.803 265.827L438.922 266.029C439.075 266.288 442.632 272.438 440.227 279.182C438.404 284.298 433.66 288.294 426.128 291.059C408.548 297.512 388.24 303.028 380.324 305.099C379.974 305.189 379.647 305.351 379.365 305.577C379.082 305.802 378.851 306.084 378.685 306.405C378.519 306.723 378.42 307.071 378.395 307.429C378.37 307.786 378.419 308.145 378.539 308.483L395.372 346.345C395.548 346.825 395.612 347.339 395.557 347.848C395.503 348.356 395.333 348.846 395.061 349.278C394.788 349.71 394.419 350.074 393.984 350.341C393.548 350.609 393.057 350.772 392.549 350.82L379.971 351.736C379.864 351.747 379.758 351.752 379.652 351.752C379.008 351.751 378.377 351.564 377.837 351.213C377.297 350.862 376.87 350.361 376.608 349.772Z" fill="#080808"/>
<path d="M367.577 225.508C359.963 215.369 353.944 204.123 349.729 192.16C349.485 191.445 349.502 190.666 349.778 189.962C350.054 189.258 350.57 188.675 351.235 188.316L377.289 174.34C377.711 174.112 378.179 173.984 378.657 173.964C379.136 173.945 379.613 174.035 380.051 174.228C380.498 174.422 380.894 174.716 381.211 175.087C381.527 175.458 381.754 175.896 381.876 176.368C384.908 187.895 390.609 198.546 398.515 207.459C398.841 207.822 399.079 208.254 399.213 208.723C399.346 209.192 399.371 209.685 399.285 210.165C399.203 210.638 399.014 211.085 398.732 211.473C398.451 211.861 398.085 212.18 397.662 212.405L371.608 226.382C370.941 226.737 370.17 226.845 369.432 226.685C368.694 226.525 368.037 226.108 367.577 225.508Z" fill="#CCCCCC"/>
<path d="M369.355 224.171C369.495 224.346 369.692 224.466 369.911 224.512C370.131 224.557 370.359 224.524 370.557 224.419L396.612 210.442C396.738 210.376 396.848 210.282 396.932 210.166C397.016 210.051 397.072 209.917 397.095 209.777C397.123 209.628 397.115 209.475 397.073 209.33C397.031 209.184 396.957 209.051 396.854 208.939C388.715 199.764 382.846 188.8 379.725 176.933C379.688 176.786 379.619 176.65 379.521 176.535C379.424 176.419 379.301 176.328 379.163 176.269C379.032 176.21 378.89 176.183 378.747 176.189C378.604 176.195 378.465 176.234 378.34 176.303L352.286 190.279C352.088 190.386 351.934 190.558 351.851 190.767C351.767 190.975 351.758 191.206 351.826 191.42C355.966 203.168 361.877 214.213 369.355 224.171Z" fill="white"/>
<path d="M454.133 221.78L433.728 229.543L428.746 215.689C428.085 213.849 428.094 211.834 428.773 210.001C429.451 208.168 430.755 206.633 432.454 205.669C434.173 204.694 436.184 204.367 438.123 204.746C440.062 205.125 441.801 206.185 443.028 207.736L454.133 221.78Z" fill="#1DB19F"/>
<path d="M402.232 276.672C401.803 276.368 401.443 275.975 401.177 275.521C400.911 275.067 400.744 274.561 400.688 274.038C398.074 249.613 399.895 230.498 406.252 215.602C407.372 213.033 409.059 210.751 411.186 208.928C413.313 207.106 415.825 205.789 418.534 205.078L435.028 204.245L435.113 204.286C438.835 206.111 441.871 209.089 443.77 212.777C445.668 216.465 446.329 220.668 445.655 224.762C440.349 238.762 435.907 253.338 439.295 265.096C439.437 265.588 439.478 266.103 439.417 266.611C439.355 267.119 439.192 267.61 438.936 268.053C438.689 268.481 438.356 268.854 437.959 269.149C437.561 269.444 437.108 269.654 436.626 269.767L405.21 277.249C404.701 277.37 404.173 277.381 403.659 277.282C403.146 277.182 402.659 276.974 402.232 276.672Z" fill="#1DB19F"/>
<path d="M429.523 198.077C439.579 198.077 447.731 189.916 447.731 179.848C447.731 169.781 439.579 161.619 429.523 161.619C419.468 161.619 411.316 169.781 411.316 179.848C411.316 189.916 419.468 198.077 429.523 198.077Z" fill="#FFB8B8"/>
<path d="M379 194.286L364.809 200.557C364.27 200.795 363.658 200.809 363.108 200.595C362.558 200.382 362.115 199.959 361.877 199.419L361.526 198.623C361.288 198.083 361.275 197.47 361.488 196.92C361.701 196.369 362.123 195.926 362.662 195.687L376.852 189.416C377.392 189.178 378.004 189.164 378.554 189.378C379.104 189.591 379.546 190.014 379.785 190.554L380.136 191.35C380.374 191.89 380.387 192.503 380.174 193.053C379.961 193.604 379.539 194.047 379 194.286Z" fill="#CCCCCC"/>
<path d="M384.189 203.934L369.999 210.205C369.459 210.443 368.847 210.457 368.298 210.244C367.748 210.03 367.305 209.607 367.066 209.068L366.715 208.272C366.478 207.731 366.464 207.119 366.677 206.568C366.89 206.018 367.313 205.574 367.852 205.336L382.042 199.064C382.582 198.827 383.193 198.813 383.743 199.026C384.293 199.239 384.736 199.662 384.975 200.202L385.326 200.998C385.563 201.538 385.577 202.151 385.364 202.701C385.151 203.252 384.728 203.695 384.189 203.934Z" fill="#CCCCCC"/>
<path d="M395.132 241.62L363.497 216.634C363.245 216.723 362.988 216.798 362.729 216.861C361.612 217.122 360.453 217.146 359.327 216.929C358.201 216.713 357.132 216.262 356.192 215.605C355.245 214.948 354.449 214.096 353.857 213.107C353.266 212.117 352.892 211.012 352.762 209.866C352.55 208.034 352.962 206.184 353.932 204.616C354.902 203.048 356.373 201.854 358.106 201.228C359.188 200.84 360.339 200.684 361.485 200.773C362.631 200.861 363.745 201.19 364.754 201.739C365.764 202.288 366.646 203.045 367.344 203.959C368.041 204.874 368.538 205.925 368.801 207.045C368.882 207.4 368.939 207.76 368.971 208.123L400.463 226.312L408.3 221.794L416.982 233.173L404.814 241.856C403.389 242.865 401.678 243.386 399.934 243.343C398.19 243.301 396.506 242.697 395.132 241.62Z" fill="#FFB8B8"/>
<path d="M420.842 236.717L402.792 224.429L411.275 212.4C412.401 210.803 414.055 209.656 415.945 209.161C417.834 208.667 419.838 208.857 421.601 209.699C423.384 210.55 424.805 212.011 425.606 213.819C426.407 215.627 426.537 217.662 425.97 219.557L420.842 236.717Z" fill="#1DB19F"/>
<path d="M422.848 177.133C418.168 180.34 412.023 183.636 407.244 180.221C404.105 177.979 403.116 173.827 404.389 170.183C406.678 163.631 412.966 160.746 418.979 158.535C426.796 155.66 435.307 153.374 443.377 155.432C451.446 157.491 458.578 165.313 457.121 173.521C455.95 180.123 449.73 185.615 450.613 192.261C451.502 198.95 459.015 202.471 465.649 203.666C472.282 204.861 479.704 205.246 484.472 210.016C490.553 216.101 489.034 226.977 483.312 233.401C477.59 239.826 468.955 242.738 460.587 244.718C449.501 247.341 437.511 248.719 426.981 244.366C416.452 240.013 408.259 228.295 411.309 217.306C412.597 212.665 415.632 208.742 418.565 204.923C421.498 201.105 424.469 197.111 425.587 192.426C426.52 188.522 425.83 183.988 423.244 181.06C422.773 180.547 422.477 179.898 422.398 179.207C422.319 178.515 422.46 177.816 422.803 177.21L422.848 177.133Z" fill="#080808"/>
<path d="M80.8584 265.7C76.1666 267.351 71.1291 267.765 66.2313 266.901C61.3335 266.038 56.7404 263.926 52.8946 260.769C43.1001 252.539 40.0293 238.979 37.5306 226.424C35.0671 214.046 32.6036 201.667 30.1401 189.289L45.6129 199.955C56.74 207.625 68.1178 215.542 75.8221 226.652C83.5265 237.762 86.8894 252.929 80.6992 264.951" fill="#E6E6E6"/>
<path d="M79.5359 310.661C81.1019 299.24 82.7122 287.673 81.6137 276.131C80.6382 265.879 77.5143 255.867 71.1545 247.657C67.7787 243.308 63.671 239.581 59.016 236.645C57.8022 235.878 56.685 237.804 57.8936 238.568C65.9479 243.664 72.1776 251.189 75.6846 260.059C79.558 269.922 80.18 280.674 79.5125 291.151C79.1089 297.488 78.2534 303.782 77.3913 310.069C77.3233 310.353 77.3657 310.653 77.5099 310.907C77.6541 311.161 77.8893 311.351 78.168 311.438C78.4523 311.515 78.7554 311.476 79.0114 311.331C79.2675 311.185 79.456 310.944 79.5359 310.661Z" fill="#F2F2F2"/>
<path d="M64.4518 290.452C62.4396 293.514 59.6737 296.005 56.4205 297.686C53.1673 299.367 49.5366 300.181 45.878 300.05C36.4756 299.603 28.637 293.033 21.5808 286.796L0.709961 268.347L14.523 267.685C24.4565 267.209 34.6463 266.765 44.1077 269.832C53.569 272.899 62.2948 280.28 64.0248 290.084" fill="#E6E6E6"/>
<path d="M83.9615 317.226C76.4239 303.873 67.6809 289.033 52.0586 284.29C47.7148 282.975 43.1601 282.505 38.6398 282.903C37.2151 283.026 37.5708 285.224 38.9929 285.102C46.5701 284.472 54.1326 286.475 60.4073 290.774C66.4454 294.888 71.1467 300.609 75.1258 306.675C77.5631 310.391 79.7463 314.264 81.93 318.133C82.6278 319.369 84.6675 318.476 83.9615 317.226Z" fill="#F2F2F2"/>
<path d="M96.039 331.28C95.785 328.334 94.7285 325.514 92.9844 323.128C91.2403 320.741 88.8755 318.879 86.1476 317.745V310.026H73.2152V317.989C70.6216 319.178 68.3895 321.035 66.7465 323.37C65.1035 325.705 64.1083 328.435 63.8625 331.28L60.8215 366.67H99.08L96.039 331.28Z" fill="#F2F2F2"/>
</g>
<defs>
<clipPath id="clip0_1_103">
<rect width="513" height="371" fill="white"/>
</clipPath>
</defs>
</svg>
