<svg width="317" height="370" viewBox="0 0 317 370" fill="none" xmlns="http://www.w3.org/2000/svg">
<g clip-path="url(#clip0_1_183)">
<path d="M306.754 136.372H9.97418C7.3298 136.369 4.79459 135.317 2.92474 133.445C1.05488 131.574 0.00305341 129.037 0 126.391V9.9811C0.00305341 7.33489 1.05488 4.79793 2.92474 2.92677C4.79459 1.05561 7.3298 0.00305553 9.97418 0H306.754C309.399 0.00305553 311.934 1.05561 313.804 2.92677C315.674 4.79793 316.725 7.33489 316.728 9.9811V126.391C316.725 129.037 315.674 131.574 313.804 133.445C311.934 135.317 309.399 136.369 306.754 136.372Z" fill="#F2F2F2"/>
<path d="M237.539 130.006H57.0834C43.6362 129.991 30.744 124.639 21.2354 115.124C11.7267 105.608 6.37809 92.7073 6.36292 79.2507V57.1271C6.37807 43.6705 11.7267 30.7693 21.2353 21.254C30.744 11.7387 43.6361 6.38624 57.0834 6.37097H259.647C273.094 6.38624 285.986 11.7387 295.495 21.254C305.003 30.7693 310.352 43.6705 310.367 57.1271C310.345 76.4492 302.665 94.9736 289.012 108.636C275.359 122.299 256.847 129.985 237.539 130.006Z" fill="white"/>
<path d="M190.988 39.6953H71.7054C71.0232 39.6953 70.3689 39.4241 69.8865 38.9413C69.4041 38.4586 69.1331 37.8038 69.1331 37.1211C69.1331 36.4384 69.4041 35.7837 69.8865 35.3009C70.3689 34.8182 71.0232 34.547 71.7054 34.547H190.988C191.671 34.547 192.325 34.8182 192.807 35.3009C193.29 35.7837 193.561 36.4384 193.561 37.1211C193.561 37.8038 193.29 38.4586 192.807 38.9413C192.325 39.4241 191.671 39.6953 190.988 39.6953Z" fill="#E6E6E6"/>
<path d="M251.372 67.1595H71.7054C71.0232 67.1595 70.3689 66.8883 69.8865 66.4055C69.4041 65.9228 69.1331 65.2681 69.1331 64.5854C69.1331 63.9027 69.4041 63.2479 69.8865 62.7652C70.3689 62.2824 71.0232 62.0112 71.7054 62.0112H251.372C252.054 62.0112 252.708 62.2824 253.19 62.7652C253.673 63.2479 253.944 63.9027 253.944 64.5854C253.944 65.2681 253.673 65.9228 253.19 66.4055C252.708 66.8883 252.054 67.1595 251.372 67.1595Z" fill="#E6E6E6"/>
<path d="M251.372 94.6238H71.7054C71.0232 94.6238 70.3689 94.3526 69.8865 93.8699C69.4041 93.3871 69.1331 92.7324 69.1331 92.0497C69.1331 91.367 69.4041 90.7123 69.8865 90.2295C70.3689 89.7468 71.0232 89.4756 71.7054 89.4756H251.372C252.054 89.4756 252.708 89.7468 253.19 90.2295C253.673 90.7123 253.944 91.367 253.944 92.0497C253.944 92.7324 253.673 93.3871 253.19 93.8699C252.708 94.3526 252.054 94.6238 251.372 94.6238Z" fill="#E6E6E6"/>
<path d="M251.372 94.6238H71.7054C71.0232 94.6238 70.3689 94.3526 69.8865 93.8699C69.4041 93.3871 69.1331 92.7324 69.1331 92.0497C69.1331 91.367 69.4041 90.7123 69.8865 90.2295C70.3689 89.7468 71.0232 89.4756 71.7054 89.4756H251.372C252.054 89.4756 252.708 89.7468 253.19 90.2295C253.673 90.7123 253.944 91.367 253.944 92.0497C253.944 92.7324 253.673 93.3871 253.19 93.8699C252.708 94.3526 252.054 94.6238 251.372 94.6238Z" fill="#E6E6E6"/>
<path d="M178.401 70.3118C178.43 71.0872 178.628 71.8468 178.982 72.5373C179.335 73.2278 179.836 73.8322 180.448 74.3081C181.061 74.7839 181.77 75.1196 182.526 75.2915C183.282 75.4634 184.067 75.4673 184.825 75.303L194.634 91.4074L198.81 82.5416L188.854 68.6078C188.494 67.3522 187.685 66.2725 186.583 65.5732C185.48 64.874 184.16 64.6038 182.871 64.8138C181.583 65.0239 180.416 65.6996 179.592 66.7129C178.768 67.7262 178.344 69.0067 178.401 70.3118Z" fill="#FFB6B6"/>
<path d="M252.018 116.466L218.211 98.1157L207.548 88.1043C207.548 88.1043 202.912 86.8622 204.618 85.3539C206.325 83.8456 201.462 82.3909 201.462 82.3909L195.738 77.0165L187.604 82.776L189.958 86.4277C189.958 86.4277 189.796 92.473 193.105 91.31C196.415 90.1469 195.588 95.1607 195.588 95.1607L215.341 125.802L252.018 116.466Z" fill="#3F3D56"/>
<path d="M152.224 99.1772C170.461 99.1772 185.245 84.3828 185.245 66.133C185.245 47.8832 170.461 33.0889 152.224 33.0889C133.987 33.0889 119.203 47.8832 119.203 66.133C119.203 84.3828 133.987 99.1772 152.224 99.1772Z" fill="#1DB19F"/>
<path d="M252.123 357.153H245.257L241.989 330.651H252.123V357.153Z" fill="#FFB6B6"/>
<path d="M255.747 369.057H250.823L249.944 364.405L247.693 369.057H234.634C234.008 369.057 233.398 368.857 232.894 368.486C232.39 368.114 232.017 367.592 231.831 366.994C231.645 366.396 231.654 365.754 231.858 365.162C232.063 364.569 232.451 364.058 232.966 363.702L243.394 356.495V351.792L254.364 352.447L255.747 369.057Z" fill="#2F2E41"/>
<path d="M197.209 357.153H190.343L187.075 330.651H197.209V357.153Z" fill="#FFB6B6"/>
<path d="M200.833 369.057H195.909L195.03 364.405L192.779 369.057H179.72C179.094 369.057 178.484 368.857 177.98 368.486C177.476 368.114 177.103 367.592 176.917 366.994C176.731 366.396 176.74 365.754 176.944 365.162C177.149 364.569 177.536 364.058 178.052 363.702L188.48 356.495V351.792L199.45 352.447L200.833 369.057Z" fill="#2F2E41"/>
<path d="M244.837 156.725H210.183V196.205H244.837V156.725Z" fill="#FFB6B6"/>
<path d="M210.983 176.198L205.118 183.134L194.988 204.475L169.464 265.247L164.066 278.1L168.425 300.82C168.425 300.82 169.131 316.827 169.131 319.447C169.131 324.783 173.59 327.739 173.59 327.739L176.861 344.789L208.583 343.456C208.583 343.456 207.477 324.661 200.833 319.92C194.189 315.179 191.134 290.472 191.134 290.472L187.524 279.509L222.712 237.769L222.939 252.359L223.049 259.422C223.049 259.422 217.896 305.354 223.903 314.268C229.909 323.182 224.025 322.133 224.025 322.133L224.311 340.521L261.898 340.788L253.606 287.848C253.606 287.848 249.395 284.522 251.648 281.177C253.901 277.833 249.465 273.737 249.465 273.737L251.454 232.409C251.454 232.409 249.251 225.27 251.843 224.342C254.434 223.414 252.183 217.276 252.183 217.276L252.568 209.276L244.837 184.468L210.983 176.198Z" fill="#2F2E41"/>
<path d="M245.371 156.725L249.103 145.521L251.768 141.786L252.835 131.116C252.835 102.306 246.413 107.104 246.413 107.104L242.705 96.9709L225.644 96.4374L214.715 106.841L205.651 110.042L202.102 128.497L208.584 148.189L210.183 158.859C207.132 164.495 207.39 161.829 209.916 166.061L240.039 174.331C250.702 178.065 250.702 168.462 248.564 166.061C246.426 163.66 245.371 156.725 245.371 156.725Z" fill="#3F3D56"/>
<path d="M231.971 92.856C240.706 92.856 247.787 85.77 247.787 77.0291C247.787 68.2882 240.706 61.2023 231.971 61.2023C223.236 61.2023 216.155 68.2882 216.155 77.0291C216.155 85.77 223.236 92.856 231.971 92.856Z" fill="#FFB6B6"/>
<path d="M253.085 98.1553C253.234 98.4069 253.325 98.6889 253.35 98.9803C253.374 99.2717 253.333 99.565 253.229 99.8383C253.125 100.112 252.961 100.358 252.749 100.559C252.536 100.76 252.281 100.91 252.003 100.999C249.881 101.703 248.575 103.757 247.05 105.4C245.531 107.038 243.083 108.399 241.143 107.284C239.207 106.174 239.074 103.341 237.453 101.805C235.875 100.311 233.252 100.492 231.397 101.628L231.341 101.663C231.021 101.872 230.647 101.982 230.264 101.98C229.882 101.979 229.509 101.865 229.19 101.653C228.872 101.441 228.623 101.14 228.473 100.788C228.324 100.436 228.281 100.048 228.349 99.6716C228.999 96.2119 229.649 92.7525 230.299 89.2936C228.592 93.4072 226.115 97.1559 223 100.337C222.142 101.328 221.055 102.094 219.833 102.567C218.724 102.92 217.647 101.773 216.57 101.981C219.246 99.6385 228.246 84.6253 226.636 74.5898C224.743 74.8033 222.851 75.0167 220.958 75.2301C220.753 74.3337 220.315 73.5074 219.689 72.8346C219.765 73.707 219.655 74.5856 219.364 75.4115C218.575 75.5022 217.78 75.5875 216.991 75.6782C215.893 75.801 214.699 75.9076 213.755 75.3315C212.182 74.3711 212.134 72.0983 212.582 70.3057C213.894 65.0932 217.871 60.7344 222.739 58.451C227.606 56.1729 229.046 61.2466 234.175 59.6247C244.304 56.4236 252.067 61.8975 254.802 72.0557C257.1 80.5759 255.431 89.619 253.085 98.1553Z" fill="#2F2E41"/>
<path d="M296.871 369.401H277.505L277.421 369.25C277.174 368.801 276.935 368.325 276.711 367.835C274.716 363.562 273.873 358.674 273.129 354.361L272.569 351.111C272.501 350.717 272.552 350.312 272.716 349.948C272.879 349.583 273.148 349.276 273.487 349.065C273.826 348.854 274.22 348.75 274.619 348.764C275.018 348.779 275.404 348.912 275.726 349.147C278.669 351.291 281.614 353.432 284.559 355.57C285.674 356.383 286.948 357.322 288.168 358.338C288.286 357.766 288.409 357.192 288.532 356.627C288.617 356.236 288.816 355.88 289.105 355.603C289.393 355.327 289.757 355.142 290.151 355.074C290.545 355.006 290.95 355.057 291.314 355.221C291.678 355.384 291.986 355.653 292.197 355.992L294.463 359.635C296.115 362.296 297.574 364.917 297.277 367.745C297.278 367.779 297.276 367.814 297.269 367.847C297.21 368.312 297.099 368.768 296.94 369.209L296.871 369.401Z" fill="#F0F0F0"/>
<path d="M316.309 369.821L132.279 370C132.096 369.999 131.92 369.925 131.79 369.795C131.661 369.665 131.588 369.489 131.588 369.305C131.588 369.121 131.661 368.945 131.79 368.814C131.92 368.684 132.096 368.61 132.279 368.609L316.309 368.43C316.492 368.431 316.668 368.505 316.798 368.635C316.927 368.765 317 368.941 317 369.125C317 369.309 316.927 369.485 316.798 369.616C316.668 369.746 316.492 369.82 316.309 369.821Z" fill="#CACACA"/>
<path d="M149.222 110.608L128.98 93.5016C128.288 92.9155 127.857 92.0788 127.78 91.1749C127.704 90.271 127.99 89.3737 128.574 88.68L132.299 84.2652C132.885 83.5728 133.721 83.1412 134.624 83.065C135.528 82.9888 136.424 83.2742 137.117 83.8587L157.36 100.965C158.052 101.551 158.483 102.388 158.559 103.292C158.636 104.196 158.35 105.093 157.766 105.787L154.04 110.202C153.455 110.894 152.619 111.326 151.715 111.402C150.812 111.478 149.915 111.193 149.222 110.608Z" fill="#3F3D56"/>
<path d="M130.042 89.0361C129.727 89.4099 129.574 89.8934 129.615 90.3805C129.656 90.8676 129.888 91.3185 130.261 91.6343L150.503 108.741C150.877 109.056 151.36 109.21 151.847 109.169C152.334 109.127 152.784 108.895 153.1 108.522L156.825 104.107C157.14 103.733 157.294 103.25 157.253 102.763C157.212 102.275 156.979 101.825 156.607 101.509L136.364 84.4022C135.991 84.0873 135.507 83.9335 135.021 83.9745C134.534 84.0156 134.083 84.2482 133.768 84.6213L130.042 89.0361Z" fill="white"/>
<path d="M141.926 95.6861C141.855 95.7844 141.763 95.8651 141.656 95.9216C141.55 95.9781 141.431 96.009 141.31 96.0117L138.13 96.0848C138.028 96.0872 137.926 96.0693 137.831 96.0324C137.735 95.9954 137.648 95.94 137.574 95.8694C137.5 95.7987 137.441 95.7142 137.4 95.6207C137.359 95.5271 137.336 95.4263 137.334 95.3241C137.331 95.2218 137.349 95.1201 137.386 95.0248C137.423 94.9294 137.479 94.8423 137.549 94.7683C137.62 94.6943 137.704 94.635 137.798 94.5937C137.891 94.5524 137.992 94.5299 138.094 94.5276L140.175 94.4797L138.126 89.0691C138.053 88.876 138.06 88.6621 138.145 88.4742C138.23 88.2862 138.386 88.1396 138.578 88.0665C138.771 87.9935 138.985 87.9998 139.173 88.0843C139.361 88.1687 139.508 88.3244 139.581 88.517L142.02 94.9571C142.064 95.0736 142.08 95.199 142.066 95.3227C142.051 95.4465 142.008 95.565 141.938 95.6683L141.926 95.6861Z" fill="#1DB19F"/>
<path d="M142.334 97.0458C143.101 97.1585 143.834 97.4382 144.481 97.8652C145.129 98.2921 145.675 98.8559 146.081 99.5169C146.487 100.178 146.743 100.92 146.832 101.691C146.92 102.461 146.839 103.242 146.593 103.978L161.524 115.488L152.263 118.677L139.504 107.258C138.296 106.764 137.311 105.842 136.737 104.669C136.162 103.497 136.037 102.153 136.386 100.895C136.735 99.6358 137.533 98.5487 138.629 97.8393C139.725 97.1299 141.043 96.8476 142.334 97.0458Z" fill="#FFB6B6"/>
<path d="M220.068 102.737L181.84 126.257C181.84 126.257 166.427 120.551 169.439 117.909C172.451 115.267 162.862 113.481 162.862 113.481L152.268 106.349L146.121 113.498C146.121 113.498 147.241 125.11 149.147 123.099C151.053 121.089 153.901 126.581 153.901 126.581C153.901 126.581 154.743 132.714 160.168 131.171C165.593 129.628 180.151 145.805 180.151 145.805L227.198 128.246L220.068 102.737Z" fill="#3F3D56"/>
<path d="M151.063 79.3884C150.62 79.3884 150.182 79.2852 149.786 79.0868C149.39 78.8884 149.045 78.6004 148.779 78.2455L141.778 68.9036C141.553 68.6034 141.389 68.2619 141.296 67.8985C141.203 67.5351 141.182 67.1569 141.235 66.7856C141.289 66.4142 141.414 66.0569 141.605 65.7341C141.796 65.4113 142.049 65.1293 142.349 64.9042C142.954 64.4497 143.716 64.2545 144.465 64.3617C144.836 64.4147 145.193 64.5404 145.516 64.7316C145.839 64.9227 146.12 65.1756 146.345 65.4757L150.926 71.587L162.691 53.9279C163.111 53.2975 163.764 52.8598 164.506 52.7113C165.248 52.5627 166.019 52.7153 166.649 53.1356C167.279 53.5558 167.717 54.2093 167.865 54.9523C168.014 55.6952 167.861 56.4668 167.441 57.0972L153.438 78.1163C153.185 78.4964 152.844 78.8102 152.445 79.0314C152.045 79.2526 151.599 79.3747 151.142 79.3875C151.116 79.388 151.089 79.3884 151.063 79.3884Z" fill="white"/>
</g>
<defs>
<clipPath id="clip0_1_183">
<rect width="317" height="370" fill="white"/>
</clipPath>
</defs>
</svg>
