<svg width="393" height="294" viewBox="0 0 393 294" fill="none" xmlns="http://www.w3.org/2000/svg">
<g clip-path="url(#clip0_1_238)">
<path d="M393 293.152C393 293.622 392.622 294 392.151 294H0.849383C0.378296 294 0 293.622 0 293.152C0 292.681 0.378296 292.303 0.849383 292.303H392.151C392.622 292.303 393 292.681 393 293.152Z" fill="#2E2E43"/>
<path d="M311.673 60.4363H81.4234C78.241 60.4363 75.652 57.8506 75.652 54.6725V36.9569C75.652 33.7788 78.241 31.1931 81.4234 31.1931H311.673C314.855 31.1931 317.444 33.7788 317.444 36.9569V54.6725C317.444 57.8506 314.855 60.4363 311.673 60.4363Z" fill="white" stroke="#BAB7C9" stroke-width="2" stroke-linecap="round" stroke-linejoin="round"/>
<path d="M311.673 169.645H81.4234C78.241 169.645 75.652 167.059 75.652 163.881V146.165C75.652 142.987 78.241 140.401 81.4234 140.401H311.673C314.855 140.401 317.444 142.987 317.444 146.165V163.881C317.444 167.059 314.855 169.645 311.673 169.645Z" fill="white" stroke="#BAB7C9" stroke-width="2" stroke-linecap="round" stroke-linejoin="round"/>
<path d="M148.22 248.055H80.7097C77.5273 248.055 74.9382 245.469 74.9382 242.291V224.576C74.9382 221.398 77.5273 218.812 80.7097 218.812H148.22C151.402 218.812 153.991 221.398 153.991 224.576V242.291C153.991 245.469 151.402 248.055 148.22 248.055Z" fill="#1DB19F"/>
<path d="M76.1576 0.712769H126.657" stroke="#BAB7C9" stroke-width="2" stroke-linecap="round" stroke-linejoin="round"/>
<path d="M76.1576 109.921H169.964" stroke="#BAB7C9" stroke-width="2" stroke-linecap="round" stroke-linejoin="round"/>
<path d="M283.816 261.778L275.875 266.847L283.076 278.096L291.017 273.027L283.816 261.778Z" fill="#F1A1A4"/>
<path d="M258.632 110.56L248.601 113.981L248.443 99.5157L257.572 99.414L258.632 110.56Z" fill="#F1A1A4"/>
<path d="M249.614 103.51C255.154 103.51 259.646 99.0247 259.646 93.4919C259.646 87.9591 255.154 83.4739 249.614 83.4739C244.074 83.4739 239.583 87.9591 239.583 93.4919C239.583 99.0247 244.074 103.51 249.614 103.51Z" fill="#F1A1A4"/>
<path d="M252.359 92.4703C250.684 92.4379 249.559 90.7598 248.888 89.2157C248.216 87.6808 247.527 85.9056 245.967 85.2815C244.689 84.773 242.485 88.3234 241.467 87.3989C240.407 86.4326 241.374 81.3843 242.481 80.4736C243.587 79.5629 245.106 79.3687 246.531 79.2809C250.026 79.0821 253.54 79.3225 256.975 80.002C259.095 80.4181 261.289 81.0607 262.83 82.5724C264.789 84.491 265.316 87.4127 265.483 90.1449C265.659 92.9418 265.525 95.8728 264.191 98.3415C262.854 100.806 260.025 102.641 257.28 102.049C256.989 100.565 257.248 99.0442 257.34 97.5279C257.433 96.0208 257.299 94.3935 256.364 93.2007C255.429 92.008 253.456 91.5549 252.396 92.6321" fill="#2F2E43"/>
<path d="M264.738 95.8035C265.733 95.0592 266.923 94.4304 268.159 94.5691C269.496 94.7124 270.635 95.8035 270.992 97.0979C271.348 98.3923 270.978 99.8255 270.168 100.898C269.358 101.971 268.14 102.682 266.844 103.048C266.094 103.26 265.275 103.348 264.552 103.048C263.492 102.604 262.909 101.268 263.312 100.191" fill="#2F2E43"/>
<path d="M227.408 190.446C226.779 193.742 228.033 196.737 230.218 197.13C232.399 197.523 234.681 195.166 235.315 191.869C235.588 190.557 235.528 189.197 235.139 187.908L242.856 136.241L232.459 134.41L229.038 186.817C228.2 187.889 227.64 189.133 227.408 190.459L227.408 190.446Z" fill="#F1A1A4"/>
<path d="M248.415 107.342L241.333 107.421C236.333 108.23 235.005 110.916 233.926 115.853C232.274 123.384 230.163 133.421 230.607 133.56C231.315 133.791 243.43 139.32 249.563 137.951L248.42 107.342L248.415 107.342Z" fill="#1DB19F"/>
<path d="M257.114 271.557L247.69 271.662L247.839 285.013L257.263 284.908L257.114 271.557Z" fill="#F1A1A4"/>
<path d="M238.727 293.201C237.731 293.215 236.856 293.201 236.19 293.146C233.681 292.947 231.278 291.125 230.061 290.062C229.515 289.586 229.334 288.809 229.607 288.143C229.802 287.667 230.2 287.302 230.7 287.15L237.296 285.189L247.929 277.853L248.05 278.065C248.096 278.144 249.17 280.025 249.536 281.301C249.674 281.787 249.647 282.189 249.443 282.503C249.304 282.721 249.11 282.85 248.952 282.929C249.147 283.127 249.758 283.534 251.637 283.812C254.368 284.219 254.919 281.38 254.938 281.26L254.956 281.163L255.035 281.107C256.327 280.252 257.118 279.868 257.396 279.947C257.572 279.993 257.854 280.081 258.715 287.774C258.794 288.014 259.359 289.78 259.007 291.481C258.627 293.33 250.549 292.78 248.938 292.655C248.892 292.66 242.856 293.159 238.717 293.201H238.731L238.727 293.201Z" fill="#2F2E43"/>
<path d="M273.524 290.982C272.417 290.996 271.399 290.871 270.672 290.751C269.959 290.631 269.395 290.071 269.274 289.359C269.182 288.846 269.334 288.333 269.672 287.945L274.227 282.795L279.356 270.951L279.574 271.066C279.653 271.108 281.56 272.139 282.551 273.026C282.925 273.364 283.115 273.72 283.115 274.099C283.115 274.358 283.018 274.57 282.921 274.714C283.194 274.778 283.925 274.797 285.666 274.043C288.198 272.943 287.161 270.243 287.115 270.137L287.078 270.044L287.119 269.961C287.763 268.556 288.235 267.807 288.508 267.724C288.684 267.677 288.966 267.59 293.776 273.664C293.971 273.826 295.387 275.023 295.989 276.651C296.642 278.421 289.508 282.221 288.064 282.966C288.022 283.003 280.565 288.536 277.5 290.122C276.283 290.751 274.834 290.959 273.514 290.968L273.528 290.982L273.524 290.982Z" fill="#2F2E43"/>
<path d="M262.793 159.804L236.407 160.096L234.287 184.634L245.772 275.097L259.243 274.945L253.276 222.691L275.653 269.684L287.532 261.177L269.978 217.268C269.978 217.268 275.649 178.786 270.751 169.272C265.858 159.758 262.798 159.79 262.798 159.79V159.804L262.793 159.804Z" fill="#2F2E43"/>
<path d="M275.931 161.154L234.023 161.621L245.994 107.375L264.256 107.167L275.931 161.154Z" fill="#1DB19F"/>
<path d="M280.023 189.863C280.727 193.15 279.537 196.169 277.366 196.608C275.19 197.052 272.857 194.745 272.158 191.458C271.857 190.15 271.885 188.791 272.241 187.491L263.372 136.005L273.723 133.943L278.31 186.266C279.171 187.32 279.759 188.555 280.023 189.872V189.863Z" fill="#F1A1A4"/>
<path d="M257.178 107.245L264.261 107.167C269.274 107.87 270.663 110.523 271.857 115.437C273.677 122.931 276.005 132.912 275.57 133.065C274.862 133.305 262.881 139.103 256.72 137.873L257.188 107.245L257.178 107.245Z" fill="#1DB19F"/>
</g>
<defs>
<clipPath id="clip0_1_238">
<rect width="393" height="294" fill="white"/>
</clipPath>
</defs>
</svg>
